<svg fill="none" viewBox="0 0 400 100" width="400" height="100" xmlns="http://www.w3.org/2000/svg"><rect x="0" y="0" width="400" height="100" stroke="#d1cee3" strokeWidth="2" rx="8" ry="8"></rect><g transform="translate(10 25)"><a href="https://mraddict.one/blog/css-at-property-rule"><text x="0" y="0" fill="#2563eb" font-size="18" font-family="sans-serif">CSS New @property Rule</text></a><g transform="translate(0 22)"><path transform="translate(0 -12)" fill="#a95ede" d="M 6.48 0 a 6.48 6.48 90 1 1 0 12.96 A 6.48 6.48 90 0 1 6.48 0 Z M 1.215 6.48 a 5.265 5.265 90 1 0 10.53 0 a 5.265 5.265 90 0 0 -10.53 0 Z m 5.67 -2.6325 v 2.4235 l 1.6427 0.6577 a 0.6075 0.6075 90 0 1 -0.4512 1.1275 l -2.025 -0.81 A 0.6083 0.6083 90 0 1 5.67 6.6825 v -2.835 a 0.6075 0.6075 90 0 1 1.215 0 Z"></path><text x="14" y="0" fill="#a95ede" font-size="14" font-family="sans-serif">2023-01-31 2 years ago</text></g><text x="0" y="44" fill="#7dce13" font-size="14" font-weight="600" font-family="sans-serif">#css #@property #animation</text><text x="0" y="66" fill="#8b919e" font-size="14" font-family="sans-serif">CSS new @property rule makes css more powerful</text></g></svg>